<mxfile host="app.diagrams.net" modified="2022-04-23T16:15:04.277Z" agent="5.0 (Windows NT 6.1; Win64; x64) AppleWebKit/537.36 (KHTML, like Gecko) Chrome/100.0.4896.127 Safari/537.36" etag="HFJqEnS1mw4xx5_dIQpH" version="17.4.6" type="github" pages="3">
  <diagram id="C5RBs43oDa-KdzZeNtuy" name="Page-1">
    <mxGraphModel dx="868" dy="460" grid="1" gridSize="10" guides="1" tooltips="1" connect="1" arrows="1" fold="1" page="1" pageScale="1" pageWidth="827" pageHeight="1169" math="0" shadow="0">
      <root>
        <mxCell id="WIyWlLk6GJQsqaUBKTNV-0" />
        <mxCell id="WIyWlLk6GJQsqaUBKTNV-1" parent="WIyWlLk6GJQsqaUBKTNV-0" />
        <mxCell id="PhW1GJZ9OWa97sP_KRJp-9" value="" style="edgeStyle=orthogonalEdgeStyle;rounded=0;orthogonalLoop=1;jettySize=auto;html=1;shadow=0;comic=1;startArrow=none;fontStyle=2" parent="WIyWlLk6GJQsqaUBKTNV-1" source="PhW1GJZ9OWa97sP_KRJp-11" target="PhW1GJZ9OWa97sP_KRJp-8" edge="1">
          <mxGeometry relative="1" as="geometry" />
        </mxCell>
        <mxCell id="PhW1GJZ9OWa97sP_KRJp-119" value="" style="edgeStyle=orthogonalEdgeStyle;rounded=0;comic=1;orthogonalLoop=1;jettySize=auto;html=1;shadow=0;fontFamily=Garamond;fontSize=11;startArrow=none;" parent="WIyWlLk6GJQsqaUBKTNV-1" source="PhW1GJZ9OWa97sP_KRJp-124" target="PhW1GJZ9OWa97sP_KRJp-118" edge="1">
          <mxGeometry relative="1" as="geometry" />
        </mxCell>
        <mxCell id="PhW1GJZ9OWa97sP_KRJp-0" value="&lt;span&gt;有效中断号&lt;/span&gt;" style="rounded=1;whiteSpace=wrap;html=1;fontSize=12;glass=0;strokeWidth=1;shadow=0;fillColor=#ffe6cc;strokeColor=#d79b00;comic=1;fontStyle=2" parent="WIyWlLk6GJQsqaUBKTNV-1" vertex="1">
          <mxGeometry x="600" y="260" width="120" height="40" as="geometry" />
        </mxCell>
        <mxCell id="PhW1GJZ9OWa97sP_KRJp-123" value="" style="edgeStyle=orthogonalEdgeStyle;rounded=0;comic=1;orthogonalLoop=1;jettySize=auto;html=1;shadow=0;fontFamily=Garamond;fontSize=22;startArrow=none;" parent="WIyWlLk6GJQsqaUBKTNV-1" source="PhW1GJZ9OWa97sP_KRJp-127" target="PhW1GJZ9OWa97sP_KRJp-122" edge="1">
          <mxGeometry relative="1" as="geometry" />
        </mxCell>
        <mxCell id="PhW1GJZ9OWa97sP_KRJp-8" value="通过IDTR获取&lt;br&gt;中断描述符，&lt;br&gt;并检查属性" style="rounded=1;whiteSpace=wrap;html=1;fontSize=12;glass=0;strokeWidth=1;shadow=0;fillColor=#ffe6cc;strokeColor=#d79b00;comic=1;fontStyle=2" parent="WIyWlLk6GJQsqaUBKTNV-1" vertex="1">
          <mxGeometry x="600" y="360" width="120" height="40" as="geometry" />
        </mxCell>
        <mxCell id="PhW1GJZ9OWa97sP_KRJp-13" value="" style="edgeStyle=orthogonalEdgeStyle;rounded=0;comic=1;orthogonalLoop=1;jettySize=auto;html=1;shadow=0;fontFamily=Garamond;fontStyle=2" parent="WIyWlLk6GJQsqaUBKTNV-1" source="PhW1GJZ9OWa97sP_KRJp-11" target="PhW1GJZ9OWa97sP_KRJp-8" edge="1">
          <mxGeometry relative="1" as="geometry" />
        </mxCell>
        <mxCell id="PhW1GJZ9OWa97sP_KRJp-11" value="yes" style="text;html=1;resizable=0;autosize=1;align=center;verticalAlign=middle;points=[];fillColor=none;strokeColor=none;rounded=0;comic=1;fontFamily=Garamond;strokeWidth=10;fontSize=22;fontStyle=2" parent="WIyWlLk6GJQsqaUBKTNV-1" vertex="1">
          <mxGeometry x="640" y="310" width="40" height="30" as="geometry" />
        </mxCell>
        <mxCell id="PhW1GJZ9OWa97sP_KRJp-12" value="" style="edgeStyle=orthogonalEdgeStyle;rounded=0;orthogonalLoop=1;jettySize=auto;html=1;shadow=0;comic=1;endArrow=none;fontStyle=2" parent="WIyWlLk6GJQsqaUBKTNV-1" source="PhW1GJZ9OWa97sP_KRJp-0" target="PhW1GJZ9OWa97sP_KRJp-11" edge="1">
          <mxGeometry relative="1" as="geometry">
            <mxPoint x="660" y="300" as="sourcePoint" />
            <mxPoint x="660" y="350" as="targetPoint" />
            <Array as="points">
              <mxPoint x="660" y="320" />
              <mxPoint x="660" y="320" />
            </Array>
          </mxGeometry>
        </mxCell>
        <mxCell id="PhW1GJZ9OWa97sP_KRJp-18" value="" style="endArrow=classic;html=1;rounded=0;shadow=0;comic=1;fontFamily=Garamond;fontSize=22;startArrow=none;fontStyle=2" parent="WIyWlLk6GJQsqaUBKTNV-1" source="PhW1GJZ9OWa97sP_KRJp-19" edge="1">
          <mxGeometry width="50" height="50" relative="1" as="geometry">
            <mxPoint x="660" y="400" as="sourcePoint" />
            <mxPoint x="660" y="460" as="targetPoint" />
          </mxGeometry>
        </mxCell>
        <mxCell id="PhW1GJZ9OWa97sP_KRJp-19" value="yes" style="text;html=1;resizable=0;autosize=1;align=center;verticalAlign=middle;points=[];fillColor=none;strokeColor=none;rounded=0;comic=1;fontFamily=Garamond;strokeWidth=10;fontSize=22;fontStyle=2" parent="WIyWlLk6GJQsqaUBKTNV-1" vertex="1">
          <mxGeometry x="640" y="415" width="40" height="30" as="geometry" />
        </mxCell>
        <mxCell id="PhW1GJZ9OWa97sP_KRJp-20" value="" style="endArrow=none;html=1;rounded=0;shadow=0;comic=1;fontFamily=Garamond;fontSize=22;fontStyle=2" parent="WIyWlLk6GJQsqaUBKTNV-1" target="PhW1GJZ9OWa97sP_KRJp-19" edge="1">
          <mxGeometry width="50" height="50" relative="1" as="geometry">
            <mxPoint x="660" y="400" as="sourcePoint" />
            <mxPoint x="660" y="470" as="targetPoint" />
          </mxGeometry>
        </mxCell>
        <mxCell id="PhW1GJZ9OWa97sP_KRJp-35" value="" style="edgeStyle=orthogonalEdgeStyle;rounded=0;comic=1;orthogonalLoop=1;jettySize=auto;html=1;shadow=0;fontFamily=Garamond;fontSize=25;" parent="WIyWlLk6GJQsqaUBKTNV-1" source="PhW1GJZ9OWa97sP_KRJp-27" target="PhW1GJZ9OWa97sP_KRJp-31" edge="1">
          <mxGeometry relative="1" as="geometry" />
        </mxCell>
        <mxCell id="PhW1GJZ9OWa97sP_KRJp-125" value="" style="edgeStyle=orthogonalEdgeStyle;rounded=0;comic=1;orthogonalLoop=1;jettySize=auto;html=1;shadow=0;fontFamily=Garamond;fontSize=22;startArrow=none;" parent="WIyWlLk6GJQsqaUBKTNV-1" source="PhW1GJZ9OWa97sP_KRJp-130" target="PhW1GJZ9OWa97sP_KRJp-124" edge="1">
          <mxGeometry relative="1" as="geometry" />
        </mxCell>
        <mxCell id="PhW1GJZ9OWa97sP_KRJp-27" value="通过GDTR获取&lt;br&gt;段表描述符" style="rounded=1;whiteSpace=wrap;html=1;fontSize=12;glass=0;strokeWidth=1;shadow=0;fillColor=#ffe6cc;strokeColor=#d79b00;comic=1;fontStyle=2" parent="WIyWlLk6GJQsqaUBKTNV-1" vertex="1">
          <mxGeometry x="600" y="460" width="120" height="40" as="geometry" />
        </mxCell>
        <mxCell id="PhW1GJZ9OWa97sP_KRJp-133" value="" style="edgeStyle=orthogonalEdgeStyle;rounded=0;comic=1;orthogonalLoop=1;jettySize=auto;html=1;shadow=0;fontFamily=Garamond;fontSize=22;startArrow=none;" parent="WIyWlLk6GJQsqaUBKTNV-1" source="PhW1GJZ9OWa97sP_KRJp-134" target="PhW1GJZ9OWa97sP_KRJp-132" edge="1">
          <mxGeometry relative="1" as="geometry" />
        </mxCell>
        <mxCell id="PhW1GJZ9OWa97sP_KRJp-31" value="&lt;i&gt;cs:ip的特权等级小于等于中断描述符的特权等级&lt;/i&gt;" style="rounded=1;whiteSpace=wrap;html=1;fontSize=12;glass=0;strokeWidth=1;shadow=0;fillColor=#ffe6cc;strokeColor=#d79b00;comic=1;" parent="WIyWlLk6GJQsqaUBKTNV-1" vertex="1">
          <mxGeometry x="600" y="545" width="120" height="40" as="geometry" />
        </mxCell>
        <mxCell id="PhW1GJZ9OWa97sP_KRJp-74" value="" style="endArrow=classic;html=1;rounded=0;shadow=0;comic=1;fontFamily=Garamond;fontSize=22;startArrow=none;fontStyle=2;" parent="WIyWlLk6GJQsqaUBKTNV-1" source="PhW1GJZ9OWa97sP_KRJp-75" edge="1">
          <mxGeometry width="50" height="50" relative="1" as="geometry">
            <mxPoint x="660" y="585" as="sourcePoint" />
            <mxPoint x="660" y="650" as="targetPoint" />
            <Array as="points">
              <mxPoint x="660" y="650" />
              <mxPoint x="660" y="640" />
            </Array>
          </mxGeometry>
        </mxCell>
        <mxCell id="PhW1GJZ9OWa97sP_KRJp-75" value="yes" style="text;html=1;resizable=0;autosize=1;align=center;verticalAlign=middle;points=[];fillColor=none;strokeColor=none;rounded=0;comic=1;fontFamily=Garamond;strokeWidth=10;fontSize=22;fontStyle=2" parent="WIyWlLk6GJQsqaUBKTNV-1" vertex="1">
          <mxGeometry x="640" y="600" width="40" height="30" as="geometry" />
        </mxCell>
        <mxCell id="PhW1GJZ9OWa97sP_KRJp-76" value="" style="endArrow=none;html=1;rounded=0;shadow=0;comic=1;fontFamily=Garamond;fontSize=22;fontStyle=2" parent="WIyWlLk6GJQsqaUBKTNV-1" target="PhW1GJZ9OWa97sP_KRJp-75" edge="1">
          <mxGeometry width="50" height="50" relative="1" as="geometry">
            <mxPoint x="660" y="585" as="sourcePoint" />
            <mxPoint x="660" y="655" as="targetPoint" />
          </mxGeometry>
        </mxCell>
        <mxCell id="PhW1GJZ9OWa97sP_KRJp-77" value="&lt;i&gt;cs:ip的特权等级大于等于段描述符的特权等级&lt;/i&gt;" style="rounded=1;whiteSpace=wrap;html=1;fontSize=12;glass=0;strokeWidth=1;shadow=0;fillColor=#ffe6cc;strokeColor=#d79b00;comic=1;" parent="WIyWlLk6GJQsqaUBKTNV-1" vertex="1">
          <mxGeometry x="600" y="650" width="120" height="40" as="geometry" />
        </mxCell>
        <mxCell id="PhW1GJZ9OWa97sP_KRJp-78" value="" style="endArrow=classic;html=1;rounded=0;shadow=0;comic=1;fontFamily=Garamond;fontSize=22;startArrow=none;fontStyle=2;" parent="WIyWlLk6GJQsqaUBKTNV-1" source="PhW1GJZ9OWa97sP_KRJp-79" edge="1">
          <mxGeometry width="50" height="50" relative="1" as="geometry">
            <mxPoint x="660" y="690" as="sourcePoint" />
            <mxPoint x="660" y="755" as="targetPoint" />
            <Array as="points">
              <mxPoint x="660" y="755" />
              <mxPoint x="660" y="745" />
            </Array>
          </mxGeometry>
        </mxCell>
        <mxCell id="PhW1GJZ9OWa97sP_KRJp-79" value="yes" style="text;html=1;resizable=0;autosize=1;align=center;verticalAlign=middle;points=[];fillColor=none;strokeColor=none;rounded=0;comic=1;fontFamily=Garamond;strokeWidth=10;fontSize=22;fontStyle=2" parent="WIyWlLk6GJQsqaUBKTNV-1" vertex="1">
          <mxGeometry x="640" y="705" width="40" height="30" as="geometry" />
        </mxCell>
        <mxCell id="PhW1GJZ9OWa97sP_KRJp-80" value="" style="endArrow=none;html=1;rounded=0;shadow=0;comic=1;fontFamily=Garamond;fontSize=22;fontStyle=2" parent="WIyWlLk6GJQsqaUBKTNV-1" target="PhW1GJZ9OWa97sP_KRJp-79" edge="1">
          <mxGeometry width="50" height="50" relative="1" as="geometry">
            <mxPoint x="660" y="690" as="sourcePoint" />
            <mxPoint x="660" y="760" as="targetPoint" />
          </mxGeometry>
        </mxCell>
        <mxCell id="PhW1GJZ9OWa97sP_KRJp-81" value="&lt;i&gt;cs:ip的特权等级大于段描述符特权等级&lt;/i&gt;" style="rounded=1;whiteSpace=wrap;html=1;fontSize=12;glass=0;strokeWidth=1;shadow=0;fillColor=#ffe6cc;strokeColor=#d79b00;comic=1;" parent="WIyWlLk6GJQsqaUBKTNV-1" vertex="1">
          <mxGeometry x="599" y="755" width="120" height="40" as="geometry" />
        </mxCell>
        <mxCell id="PhW1GJZ9OWa97sP_KRJp-82" value="" style="endArrow=classic;html=1;rounded=0;shadow=0;comic=1;fontFamily=Garamond;fontSize=22;startArrow=none;fontStyle=2;" parent="WIyWlLk6GJQsqaUBKTNV-1" source="PhW1GJZ9OWa97sP_KRJp-83" edge="1">
          <mxGeometry width="50" height="50" relative="1" as="geometry">
            <mxPoint x="660" y="795" as="sourcePoint" />
            <mxPoint x="660" y="860" as="targetPoint" />
            <Array as="points">
              <mxPoint x="660" y="860" />
              <mxPoint x="660" y="850" />
            </Array>
          </mxGeometry>
        </mxCell>
        <mxCell id="PhW1GJZ9OWa97sP_KRJp-83" value="yes" style="text;html=1;resizable=0;autosize=1;align=center;verticalAlign=middle;points=[];fillColor=none;strokeColor=none;rounded=0;comic=1;fontFamily=Garamond;strokeWidth=10;fontSize=22;fontStyle=2" parent="WIyWlLk6GJQsqaUBKTNV-1" vertex="1">
          <mxGeometry x="640" y="810" width="40" height="30" as="geometry" />
        </mxCell>
        <mxCell id="PhW1GJZ9OWa97sP_KRJp-84" value="" style="endArrow=none;html=1;rounded=0;shadow=0;comic=1;fontFamily=Garamond;fontSize=22;fontStyle=2" parent="WIyWlLk6GJQsqaUBKTNV-1" target="PhW1GJZ9OWa97sP_KRJp-83" edge="1">
          <mxGeometry width="50" height="50" relative="1" as="geometry">
            <mxPoint x="660" y="795" as="sourcePoint" />
            <mxPoint x="660" y="865" as="targetPoint" />
          </mxGeometry>
        </mxCell>
        <mxCell id="PhW1GJZ9OWa97sP_KRJp-85" value="&lt;i&gt;提升cs:ip的特权等级，栈切换时，还需检查tss等寄存器的权限&lt;/i&gt;" style="rounded=1;whiteSpace=wrap;html=1;fontSize=12;glass=0;strokeWidth=1;shadow=0;fillColor=#ffe6cc;strokeColor=#d79b00;comic=1;" parent="WIyWlLk6GJQsqaUBKTNV-1" vertex="1">
          <mxGeometry x="600" y="860" width="120" height="60" as="geometry" />
        </mxCell>
        <mxCell id="PhW1GJZ9OWa97sP_KRJp-88" value="" style="endArrow=classic;html=1;rounded=0;shadow=0;comic=1;fontFamily=Garamond;fontSize=22;startArrow=none;fontStyle=2;" parent="WIyWlLk6GJQsqaUBKTNV-1" source="PhW1GJZ9OWa97sP_KRJp-89" edge="1">
          <mxGeometry width="50" height="50" relative="1" as="geometry">
            <mxPoint x="660" y="920" as="sourcePoint" />
            <mxPoint x="660" y="985" as="targetPoint" />
            <Array as="points">
              <mxPoint x="660" y="985" />
              <mxPoint x="660" y="975" />
            </Array>
          </mxGeometry>
        </mxCell>
        <mxCell id="PhW1GJZ9OWa97sP_KRJp-89" value="yes" style="text;html=1;resizable=0;autosize=1;align=center;verticalAlign=middle;points=[];fillColor=none;strokeColor=none;rounded=0;comic=1;fontFamily=Garamond;strokeWidth=10;fontSize=22;fontStyle=2" parent="WIyWlLk6GJQsqaUBKTNV-1" vertex="1">
          <mxGeometry x="640" y="935" width="40" height="30" as="geometry" />
        </mxCell>
        <mxCell id="PhW1GJZ9OWa97sP_KRJp-90" value="" style="endArrow=none;html=1;rounded=0;shadow=0;comic=1;fontFamily=Garamond;fontSize=22;fontStyle=2" parent="WIyWlLk6GJQsqaUBKTNV-1" target="PhW1GJZ9OWa97sP_KRJp-89" edge="1">
          <mxGeometry width="50" height="50" relative="1" as="geometry">
            <mxPoint x="660" y="920" as="sourcePoint" />
            <mxPoint x="660" y="990" as="targetPoint" />
          </mxGeometry>
        </mxCell>
        <mxCell id="PhW1GJZ9OWa97sP_KRJp-91" value="&lt;i&gt;更新cs:ip寄存器&lt;/i&gt;" style="rounded=1;whiteSpace=wrap;html=1;fontSize=12;glass=0;strokeWidth=1;shadow=0;fillColor=#ffe6cc;strokeColor=#d79b00;comic=1;" parent="WIyWlLk6GJQsqaUBKTNV-1" vertex="1">
          <mxGeometry x="600" y="985" width="120" height="45" as="geometry" />
        </mxCell>
        <mxCell id="PhW1GJZ9OWa97sP_KRJp-105" value="" style="edgeStyle=orthogonalEdgeStyle;rounded=0;comic=1;orthogonalLoop=1;jettySize=auto;html=1;shadow=0;fontFamily=Garamond;fontSize=11;entryX=1;entryY=0.5;entryDx=0;entryDy=0;" parent="WIyWlLk6GJQsqaUBKTNV-1" source="PhW1GJZ9OWa97sP_KRJp-97" target="PhW1GJZ9OWa97sP_KRJp-91" edge="1">
          <mxGeometry relative="1" as="geometry">
            <mxPoint x="780" y="1010" as="targetPoint" />
            <Array as="points">
              <mxPoint x="780" y="1008" />
            </Array>
          </mxGeometry>
        </mxCell>
        <mxCell id="PhW1GJZ9OWa97sP_KRJp-97" value="no" style="text;html=1;resizable=0;autosize=1;align=center;verticalAlign=middle;points=[];fillColor=none;strokeColor=none;rounded=0;comic=1;fontFamily=Garamond;strokeWidth=10;fontSize=22;fontStyle=2;shadow=1;" parent="WIyWlLk6GJQsqaUBKTNV-1" vertex="1">
          <mxGeometry x="765" y="875" width="30" height="30" as="geometry" />
        </mxCell>
        <mxCell id="PhW1GJZ9OWa97sP_KRJp-103" value="" style="edgeStyle=orthogonalEdgeStyle;rounded=0;comic=1;orthogonalLoop=1;jettySize=auto;html=1;shadow=0;fontFamily=Garamond;fontSize=11;endArrow=none;" parent="WIyWlLk6GJQsqaUBKTNV-1" source="PhW1GJZ9OWa97sP_KRJp-81" edge="1">
          <mxGeometry relative="1" as="geometry">
            <mxPoint x="780" y="875" as="targetPoint" />
            <mxPoint x="719" y="775" as="sourcePoint" />
            <Array as="points" />
          </mxGeometry>
        </mxCell>
        <mxCell id="PhW1GJZ9OWa97sP_KRJp-117" value="&lt;i&gt;不执行中断&lt;/i&gt;" style="rounded=1;whiteSpace=wrap;html=1;fontSize=12;glass=0;strokeWidth=1;shadow=0;fillColor=#ffe6cc;strokeColor=#d79b00;comic=1;" parent="WIyWlLk6GJQsqaUBKTNV-1" vertex="1">
          <mxGeometry x="790" y="650" width="120" height="40" as="geometry" />
        </mxCell>
        <mxCell id="PhW1GJZ9OWa97sP_KRJp-118" value="" style="shape=waypoint;sketch=0;size=6;pointerEvents=1;points=[];fillColor=#ffe6cc;resizable=0;rotatable=0;perimeter=centerPerimeter;snapToPoint=1;strokeColor=#d79b00;rounded=1;glass=0;strokeWidth=1;shadow=0;comic=1;fontStyle=2;" parent="WIyWlLk6GJQsqaUBKTNV-1" vertex="1">
          <mxGeometry x="830" y="630" width="40" height="40" as="geometry" />
        </mxCell>
        <mxCell id="PhW1GJZ9OWa97sP_KRJp-120" value="no" style="text;html=1;resizable=0;autosize=1;align=center;verticalAlign=middle;points=[];fillColor=none;strokeColor=none;rounded=0;shadow=0;comic=1;fontFamily=Garamond;fontSize=22;fontStyle=2" parent="WIyWlLk6GJQsqaUBKTNV-1" vertex="1">
          <mxGeometry x="765" y="265" width="30" height="30" as="geometry" />
        </mxCell>
        <mxCell id="PhW1GJZ9OWa97sP_KRJp-121" value="" style="edgeStyle=orthogonalEdgeStyle;rounded=0;comic=1;orthogonalLoop=1;jettySize=auto;html=1;shadow=0;fontFamily=Garamond;fontSize=11;endArrow=none;" parent="WIyWlLk6GJQsqaUBKTNV-1" source="PhW1GJZ9OWa97sP_KRJp-0" target="PhW1GJZ9OWa97sP_KRJp-120" edge="1">
          <mxGeometry relative="1" as="geometry">
            <mxPoint x="720" y="280" as="sourcePoint" />
            <mxPoint x="850" y="650" as="targetPoint" />
          </mxGeometry>
        </mxCell>
        <mxCell id="PhW1GJZ9OWa97sP_KRJp-122" value="" style="shape=waypoint;sketch=0;size=6;pointerEvents=1;points=[];fillColor=#ffe6cc;resizable=0;rotatable=0;perimeter=centerPerimeter;snapToPoint=1;strokeColor=#d79b00;rounded=1;glass=0;strokeWidth=1;shadow=0;comic=1;fontStyle=2;" parent="WIyWlLk6GJQsqaUBKTNV-1" vertex="1">
          <mxGeometry x="830" y="360" width="40" height="40" as="geometry" />
        </mxCell>
        <mxCell id="PhW1GJZ9OWa97sP_KRJp-124" value="" style="shape=waypoint;sketch=0;size=6;pointerEvents=1;points=[];fillColor=#ffe6cc;resizable=0;rotatable=0;perimeter=centerPerimeter;snapToPoint=1;strokeColor=#d79b00;rounded=1;glass=0;strokeWidth=1;shadow=0;comic=1;fontStyle=2;" parent="WIyWlLk6GJQsqaUBKTNV-1" vertex="1">
          <mxGeometry x="827" y="460" width="40" height="40" as="geometry" />
        </mxCell>
        <mxCell id="PhW1GJZ9OWa97sP_KRJp-126" value="" style="edgeStyle=orthogonalEdgeStyle;rounded=0;comic=1;orthogonalLoop=1;jettySize=auto;html=1;shadow=0;fontFamily=Garamond;fontSize=11;startArrow=none;endArrow=none;" parent="WIyWlLk6GJQsqaUBKTNV-1" source="PhW1GJZ9OWa97sP_KRJp-120" target="PhW1GJZ9OWa97sP_KRJp-124" edge="1">
          <mxGeometry relative="1" as="geometry">
            <mxPoint x="795" y="280" as="sourcePoint" />
            <mxPoint x="850" y="650" as="targetPoint" />
          </mxGeometry>
        </mxCell>
        <mxCell id="PhW1GJZ9OWa97sP_KRJp-127" value="no" style="text;html=1;resizable=0;autosize=1;align=center;verticalAlign=middle;points=[];fillColor=none;strokeColor=none;rounded=0;shadow=0;comic=1;fontFamily=Garamond;fontSize=22;fontStyle=2" parent="WIyWlLk6GJQsqaUBKTNV-1" vertex="1">
          <mxGeometry x="765" y="365" width="30" height="30" as="geometry" />
        </mxCell>
        <mxCell id="PhW1GJZ9OWa97sP_KRJp-129" value="" style="edgeStyle=orthogonalEdgeStyle;rounded=0;comic=1;orthogonalLoop=1;jettySize=auto;html=1;shadow=0;fontFamily=Garamond;fontSize=22;endArrow=none;" parent="WIyWlLk6GJQsqaUBKTNV-1" source="PhW1GJZ9OWa97sP_KRJp-8" target="PhW1GJZ9OWa97sP_KRJp-127" edge="1">
          <mxGeometry relative="1" as="geometry">
            <mxPoint x="720" y="380" as="sourcePoint" />
            <mxPoint x="850" y="380" as="targetPoint" />
          </mxGeometry>
        </mxCell>
        <mxCell id="PhW1GJZ9OWa97sP_KRJp-130" value="no" style="text;html=1;resizable=0;autosize=1;align=center;verticalAlign=middle;points=[];fillColor=none;strokeColor=none;rounded=0;shadow=0;comic=1;fontFamily=Garamond;fontSize=22;fontStyle=2" parent="WIyWlLk6GJQsqaUBKTNV-1" vertex="1">
          <mxGeometry x="765" y="465" width="30" height="30" as="geometry" />
        </mxCell>
        <mxCell id="PhW1GJZ9OWa97sP_KRJp-131" value="" style="edgeStyle=orthogonalEdgeStyle;rounded=0;comic=1;orthogonalLoop=1;jettySize=auto;html=1;shadow=0;fontFamily=Garamond;fontSize=22;endArrow=none;" parent="WIyWlLk6GJQsqaUBKTNV-1" source="PhW1GJZ9OWa97sP_KRJp-27" target="PhW1GJZ9OWa97sP_KRJp-130" edge="1">
          <mxGeometry relative="1" as="geometry">
            <mxPoint x="720" y="480" as="sourcePoint" />
            <mxPoint x="847" y="480" as="targetPoint" />
          </mxGeometry>
        </mxCell>
        <mxCell id="PhW1GJZ9OWa97sP_KRJp-132" value="" style="shape=waypoint;sketch=0;size=6;pointerEvents=1;points=[];fillColor=#ffe6cc;resizable=0;rotatable=0;perimeter=centerPerimeter;snapToPoint=1;strokeColor=#d79b00;rounded=1;glass=0;strokeWidth=1;shadow=0;comic=1;" parent="WIyWlLk6GJQsqaUBKTNV-1" vertex="1">
          <mxGeometry x="830" y="545" width="40" height="40" as="geometry" />
        </mxCell>
        <mxCell id="PhW1GJZ9OWa97sP_KRJp-134" value="no" style="text;html=1;resizable=0;autosize=1;align=center;verticalAlign=middle;points=[];fillColor=none;strokeColor=none;rounded=0;shadow=0;comic=1;fontFamily=Garamond;fontSize=22;fontStyle=2" parent="WIyWlLk6GJQsqaUBKTNV-1" vertex="1">
          <mxGeometry x="760" y="550" width="30" height="30" as="geometry" />
        </mxCell>
        <mxCell id="PhW1GJZ9OWa97sP_KRJp-135" value="" style="edgeStyle=orthogonalEdgeStyle;rounded=0;comic=1;orthogonalLoop=1;jettySize=auto;html=1;shadow=0;fontFamily=Garamond;fontSize=22;endArrow=none;" parent="WIyWlLk6GJQsqaUBKTNV-1" source="PhW1GJZ9OWa97sP_KRJp-31" target="PhW1GJZ9OWa97sP_KRJp-134" edge="1">
          <mxGeometry relative="1" as="geometry">
            <mxPoint x="720" y="565" as="sourcePoint" />
            <mxPoint x="850" y="565" as="targetPoint" />
          </mxGeometry>
        </mxCell>
      </root>
    </mxGraphModel>
  </diagram>
  <diagram id="VrF7tBmTopf8bpxzuy82" name="Page-2">
    <mxGraphModel dx="868" dy="460" grid="1" gridSize="10" guides="1" tooltips="1" connect="1" arrows="1" fold="1" page="1" pageScale="1" pageWidth="827" pageHeight="1169" math="0" shadow="0">
      <root>
        <mxCell id="0" />
        <mxCell id="1" parent="0" />
        <mxCell id="CfgQIC_P58KxjbFPf7me-6" value="" style="shape=table;startSize=0;container=1;collapsible=0;childLayout=tableLayout;fillColor=#ffe6cc;strokeColor=#d79b00;enumerate=0;comic=1;moveCells=0;treeMoving=0;treeFolding=0;resizeHeight=0;movableLabel=0;backgroundOutline=0;autosize=0;fixDash=0;snapToPoint=0;perimeter=parallelogramPerimeter;portConstraintRotation=0;noLabel=0;separatorColor=#33FFFF;fontStyle=2;fontSize=16;" parent="1" vertex="1">
          <mxGeometry x="200" y="180" width="390" height="80" as="geometry" />
        </mxCell>
        <mxCell id="CfgQIC_P58KxjbFPf7me-7" value="" style="shape=tableRow;horizontal=0;startSize=0;swimlaneHead=0;swimlaneBody=0;top=0;left=0;bottom=0;right=0;collapsible=0;dropTarget=0;fillColor=none;points=[[0,0.5],[1,0.5]];portConstraint=eastwest;fontStyle=2;fontSize=16;" parent="CfgQIC_P58KxjbFPf7me-6" vertex="1">
          <mxGeometry width="390" height="80" as="geometry" />
        </mxCell>
        <mxCell id="CfgQIC_P58KxjbFPf7me-8" value="t bits" style="shape=partialRectangle;html=1;whiteSpace=wrap;connectable=0;overflow=hidden;fillColor=none;top=0;left=0;bottom=0;right=0;pointerEvents=1;fontStyle=2;fontSize=16;" parent="CfgQIC_P58KxjbFPf7me-7" vertex="1">
          <mxGeometry width="130" height="80" as="geometry">
            <mxRectangle width="130" height="80" as="alternateBounds" />
          </mxGeometry>
        </mxCell>
        <mxCell id="CfgQIC_P58KxjbFPf7me-9" value="s bits" style="shape=partialRectangle;html=1;whiteSpace=wrap;connectable=0;overflow=hidden;fillColor=none;top=0;left=0;bottom=0;right=0;pointerEvents=1;fontStyle=2;fontSize=16;" parent="CfgQIC_P58KxjbFPf7me-7" vertex="1">
          <mxGeometry x="130" width="130" height="80" as="geometry">
            <mxRectangle width="130" height="80" as="alternateBounds" />
          </mxGeometry>
        </mxCell>
        <mxCell id="CfgQIC_P58KxjbFPf7me-10" value="b bits" style="shape=partialRectangle;html=1;whiteSpace=wrap;connectable=0;overflow=hidden;fillColor=none;top=0;left=0;bottom=0;right=0;pointerEvents=1;fontStyle=2;fontSize=16;" parent="CfgQIC_P58KxjbFPf7me-7" vertex="1">
          <mxGeometry x="260" width="130" height="80" as="geometry">
            <mxRectangle width="130" height="80" as="alternateBounds" />
          </mxGeometry>
        </mxCell>
        <mxCell id="CfgQIC_P58KxjbFPf7me-12" value="" style="shape=curlyBracket;whiteSpace=wrap;html=1;rounded=1;comic=1;fontSize=16;direction=north;size=0.5;" parent="1" vertex="1">
          <mxGeometry x="200" y="270" width="130" height="20" as="geometry" />
        </mxCell>
        <mxCell id="CfgQIC_P58KxjbFPf7me-13" value="tag" style="text;html=1;resizable=0;autosize=1;align=center;verticalAlign=middle;points=[];fillColor=none;strokeColor=none;rounded=0;comic=1;fontSize=16;fontStyle=2" parent="1" vertex="1">
          <mxGeometry x="245" y="300" width="40" height="20" as="geometry" />
        </mxCell>
        <mxCell id="CfgQIC_P58KxjbFPf7me-14" value="" style="shape=curlyBracket;whiteSpace=wrap;html=1;rounded=1;comic=1;fontSize=16;direction=north;size=0.5;" parent="1" vertex="1">
          <mxGeometry x="330" y="270" width="130" height="20" as="geometry" />
        </mxCell>
        <mxCell id="CfgQIC_P58KxjbFPf7me-15" value="set index" style="text;html=1;resizable=0;autosize=1;align=center;verticalAlign=middle;points=[];fillColor=none;strokeColor=none;rounded=0;comic=1;fontSize=16;fontStyle=2" parent="1" vertex="1">
          <mxGeometry x="355" y="300" width="80" height="20" as="geometry" />
        </mxCell>
        <mxCell id="CfgQIC_P58KxjbFPf7me-16" value="" style="shape=curlyBracket;whiteSpace=wrap;html=1;rounded=1;comic=1;fontSize=16;direction=north;size=0.5;" parent="1" vertex="1">
          <mxGeometry x="460" y="270" width="130" height="20" as="geometry" />
        </mxCell>
        <mxCell id="CfgQIC_P58KxjbFPf7me-17" value="block offset" style="text;html=1;resizable=0;autosize=1;align=center;verticalAlign=middle;points=[];fillColor=none;strokeColor=none;rounded=0;comic=1;fontSize=16;fontStyle=2" parent="1" vertex="1">
          <mxGeometry x="475" y="300" width="100" height="20" as="geometry" />
        </mxCell>
      </root>
    </mxGraphModel>
  </diagram>
  <diagram id="roQ_gybheszHUp9KFGE0" name="Page-3">
    <mxGraphModel dx="1240" dy="657" grid="1" gridSize="10" guides="1" tooltips="1" connect="1" arrows="1" fold="1" page="1" pageScale="1" pageWidth="827" pageHeight="1169" math="0" shadow="0">
      <root>
        <mxCell id="0" />
        <mxCell id="1" parent="0" />
        <mxCell id="MvEKGWX4g-L-l9NvKauC-14" value="" style="rounded=1;whiteSpace=wrap;html=1;strokeWidth=2;fillWeight=4;hachureGap=8;hachureAngle=45;fillColor=#1ba1e2;sketch=1;comic=1;fontSize=16;" vertex="1" parent="1">
          <mxGeometry x="120" y="100" width="80" height="30" as="geometry" />
        </mxCell>
        <mxCell id="MvEKGWX4g-L-l9NvKauC-17" value="" style="rounded=1;whiteSpace=wrap;html=1;strokeWidth=2;fillWeight=4;hachureGap=8;hachureAngle=45;fillColor=#1ba1e2;sketch=1;comic=1;fontSize=16;" vertex="1" parent="1">
          <mxGeometry x="210" y="100" width="80" height="30" as="geometry" />
        </mxCell>
        <mxCell id="MvEKGWX4g-L-l9NvKauC-18" value="" style="rounded=1;whiteSpace=wrap;html=1;strokeWidth=2;fillWeight=4;hachureGap=8;hachureAngle=45;fillColor=#1ba1e2;sketch=1;comic=1;fontSize=16;" vertex="1" parent="1">
          <mxGeometry x="400" y="100" width="80" height="30" as="geometry" />
        </mxCell>
        <mxCell id="MvEKGWX4g-L-l9NvKauC-19" value="" style="endArrow=none;dashed=1;html=1;dashPattern=1 3;strokeWidth=2;rounded=0;fontSize=21;comic=1;" edge="1" parent="1">
          <mxGeometry width="50" height="50" relative="1" as="geometry">
            <mxPoint x="310" y="114.5" as="sourcePoint" />
            <mxPoint x="390" y="114.5" as="targetPoint" />
          </mxGeometry>
        </mxCell>
        <mxCell id="MvEKGWX4g-L-l9NvKauC-20" value="" style="rounded=1;whiteSpace=wrap;html=1;strokeWidth=2;fillWeight=4;hachureGap=8;hachureAngle=45;fillColor=#1ba1e2;sketch=1;comic=1;fontSize=16;" vertex="1" parent="1">
          <mxGeometry x="120" y="150" width="80" height="30" as="geometry" />
        </mxCell>
        <mxCell id="MvEKGWX4g-L-l9NvKauC-21" value="" style="rounded=1;whiteSpace=wrap;html=1;strokeWidth=2;fillWeight=4;hachureGap=8;hachureAngle=45;fillColor=#1ba1e2;sketch=1;comic=1;fontSize=16;" vertex="1" parent="1">
          <mxGeometry x="210" y="150" width="80" height="30" as="geometry" />
        </mxCell>
        <mxCell id="MvEKGWX4g-L-l9NvKauC-22" value="" style="rounded=1;whiteSpace=wrap;html=1;strokeWidth=2;fillWeight=4;hachureGap=8;hachureAngle=45;fillColor=#1ba1e2;sketch=1;comic=1;fontSize=16;" vertex="1" parent="1">
          <mxGeometry x="400" y="150" width="80" height="30" as="geometry" />
        </mxCell>
        <mxCell id="MvEKGWX4g-L-l9NvKauC-23" value="" style="endArrow=none;dashed=1;html=1;dashPattern=1 3;strokeWidth=2;rounded=0;fontSize=21;comic=1;" edge="1" parent="1">
          <mxGeometry width="50" height="50" relative="1" as="geometry">
            <mxPoint x="310" y="164.5" as="sourcePoint" />
            <mxPoint x="390" y="164.5" as="targetPoint" />
          </mxGeometry>
        </mxCell>
        <mxCell id="MvEKGWX4g-L-l9NvKauC-25" value="" style="rounded=1;whiteSpace=wrap;html=1;strokeWidth=2;fillWeight=4;hachureGap=8;hachureAngle=45;fillColor=#1ba1e2;sketch=1;comic=1;fontSize=16;" vertex="1" parent="1">
          <mxGeometry x="210" y="280" width="80" height="30" as="geometry" />
        </mxCell>
        <mxCell id="MvEKGWX4g-L-l9NvKauC-26" value="" style="rounded=1;whiteSpace=wrap;html=1;strokeWidth=2;fillWeight=4;hachureGap=8;hachureAngle=45;fillColor=#1ba1e2;sketch=1;comic=1;fontSize=16;" vertex="1" parent="1">
          <mxGeometry x="400" y="280" width="80" height="30" as="geometry" />
        </mxCell>
        <mxCell id="MvEKGWX4g-L-l9NvKauC-27" value="" style="endArrow=none;dashed=1;html=1;dashPattern=1 3;strokeWidth=2;rounded=0;fontSize=21;comic=1;" edge="1" parent="1">
          <mxGeometry width="50" height="50" relative="1" as="geometry">
            <mxPoint x="310" y="294.5" as="sourcePoint" />
            <mxPoint x="390" y="294.5" as="targetPoint" />
          </mxGeometry>
        </mxCell>
        <mxCell id="MvEKGWX4g-L-l9NvKauC-28" value="" style="endArrow=none;dashed=1;html=1;dashPattern=1 3;strokeWidth=2;rounded=0;comic=1;fontSize=21;" edge="1" parent="1">
          <mxGeometry width="50" height="50" relative="1" as="geometry">
            <mxPoint x="159.5" y="260" as="sourcePoint" />
            <mxPoint x="159.5" y="200" as="targetPoint" />
          </mxGeometry>
        </mxCell>
        <mxCell id="MvEKGWX4g-L-l9NvKauC-29" value="" style="endArrow=none;dashed=1;html=1;dashPattern=1 3;strokeWidth=2;rounded=0;comic=1;fontSize=21;" edge="1" parent="1">
          <mxGeometry width="50" height="50" relative="1" as="geometry">
            <mxPoint x="249.5" y="260" as="sourcePoint" />
            <mxPoint x="249.5" y="200" as="targetPoint" />
          </mxGeometry>
        </mxCell>
        <mxCell id="MvEKGWX4g-L-l9NvKauC-30" value="" style="endArrow=none;dashed=1;html=1;dashPattern=1 3;strokeWidth=2;rounded=0;comic=1;fontSize=21;" edge="1" parent="1">
          <mxGeometry width="50" height="50" relative="1" as="geometry">
            <mxPoint x="439.5" y="260" as="sourcePoint" />
            <mxPoint x="439.5" y="200" as="targetPoint" />
          </mxGeometry>
        </mxCell>
        <mxCell id="MvEKGWX4g-L-l9NvKauC-31" value="" style="shape=curlyBracket;whiteSpace=wrap;html=1;rounded=1;comic=1;fontSize=21;" vertex="1" parent="1">
          <mxGeometry x="80" y="110" width="20" height="170" as="geometry" />
        </mxCell>
        <mxCell id="MvEKGWX4g-L-l9NvKauC-32" value="" style="shape=curlyBracket;whiteSpace=wrap;html=1;rounded=1;comic=1;fontSize=21;direction=south;" vertex="1" parent="1">
          <mxGeometry x="120" y="60" width="320" height="20" as="geometry" />
        </mxCell>
        <mxCell id="MvEKGWX4g-L-l9NvKauC-33" value="S个set" style="text;html=1;resizable=0;autosize=1;align=center;verticalAlign=middle;points=[];fillColor=none;strokeColor=none;rounded=0;comic=1;fontSize=17;fontStyle=2" vertex="1" parent="1">
          <mxGeometry x="5" y="180" width="70" height="30" as="geometry" />
        </mxCell>
        <mxCell id="MvEKGWX4g-L-l9NvKauC-34" value="E lines peer set" style="text;html=1;resizable=0;autosize=1;align=center;verticalAlign=middle;points=[];fillColor=none;strokeColor=none;rounded=0;comic=1;fontSize=17;fontStyle=2" vertex="1" parent="1">
          <mxGeometry x="215" y="30" width="130" height="30" as="geometry" />
        </mxCell>
        <mxCell id="7X5tYbJd714W5t0z2Zds-1" value="" style="shape=table;startSize=0;container=1;collapsible=0;childLayout=tableLayout;fillColor=#ffe6cc;strokeColor=#d79b00;enumerate=0;comic=1;moveCells=0;treeMoving=0;treeFolding=0;resizeHeight=0;movableLabel=0;backgroundOutline=0;autosize=0;fixDash=0;snapToPoint=0;perimeter=parallelogramPerimeter;portConstraintRotation=0;noLabel=0;separatorColor=#33FFFF;fontStyle=2;fontSize=16;" vertex="1" parent="1">
          <mxGeometry x="60" y="380" width="270" height="60" as="geometry" />
        </mxCell>
        <mxCell id="7X5tYbJd714W5t0z2Zds-2" value="" style="shape=tableRow;horizontal=0;startSize=0;swimlaneHead=0;swimlaneBody=0;top=0;left=0;bottom=0;right=0;collapsible=0;dropTarget=0;fillColor=none;points=[[0,0.5],[1,0.5]];portConstraint=eastwest;fontStyle=2;fontSize=16;" vertex="1" parent="7X5tYbJd714W5t0z2Zds-1">
          <mxGeometry width="270" height="60" as="geometry" />
        </mxCell>
        <mxCell id="7X5tYbJd714W5t0z2Zds-3" value="v" style="shape=partialRectangle;html=1;whiteSpace=wrap;connectable=0;overflow=hidden;fillColor=none;top=0;left=0;bottom=0;right=0;pointerEvents=1;fontStyle=2;fontSize=16;" vertex="1" parent="7X5tYbJd714W5t0z2Zds-2">
          <mxGeometry width="90" height="60" as="geometry">
            <mxRectangle width="90" height="60" as="alternateBounds" />
          </mxGeometry>
        </mxCell>
        <mxCell id="7X5tYbJd714W5t0z2Zds-4" value="tag" style="shape=partialRectangle;html=1;whiteSpace=wrap;connectable=0;overflow=hidden;fillColor=none;top=0;left=0;bottom=0;right=0;pointerEvents=1;fontStyle=2;fontSize=16;" vertex="1" parent="7X5tYbJd714W5t0z2Zds-2">
          <mxGeometry x="90" width="90" height="60" as="geometry">
            <mxRectangle width="90" height="60" as="alternateBounds" />
          </mxGeometry>
        </mxCell>
        <mxCell id="7X5tYbJd714W5t0z2Zds-5" value="data" style="shape=partialRectangle;html=1;whiteSpace=wrap;connectable=0;overflow=hidden;fillColor=none;top=0;left=0;bottom=0;right=0;pointerEvents=1;fontStyle=2;fontSize=16;" vertex="1" parent="7X5tYbJd714W5t0z2Zds-2">
          <mxGeometry x="180" width="90" height="60" as="geometry">
            <mxRectangle width="90" height="60" as="alternateBounds" />
          </mxGeometry>
        </mxCell>
        <mxCell id="7X5tYbJd714W5t0z2Zds-6" value="" style="shape=curlyBracket;whiteSpace=wrap;html=1;rounded=1;comic=1;fontSize=16;direction=north;size=0.5;" vertex="1" parent="1">
          <mxGeometry x="60" y="450" width="90" height="20" as="geometry" />
        </mxCell>
        <mxCell id="7X5tYbJd714W5t0z2Zds-7" value="valid bit" style="text;html=1;resizable=0;autosize=1;align=center;verticalAlign=middle;points=[];fillColor=none;strokeColor=none;rounded=0;comic=1;fontSize=16;fontStyle=2" vertex="1" parent="1">
          <mxGeometry x="70" y="480" width="70" height="20" as="geometry" />
        </mxCell>
        <mxCell id="7X5tYbJd714W5t0z2Zds-8" value="" style="shape=curlyBracket;whiteSpace=wrap;html=1;rounded=1;comic=1;fontSize=16;direction=north;size=0.5;" vertex="1" parent="1">
          <mxGeometry x="150" y="450" width="90" height="20" as="geometry" />
        </mxCell>
        <mxCell id="7X5tYbJd714W5t0z2Zds-10" value="" style="shape=curlyBracket;whiteSpace=wrap;html=1;rounded=1;comic=1;fontSize=16;direction=north;size=0.5;" vertex="1" parent="1">
          <mxGeometry x="240" y="450" width="90" height="20" as="geometry" />
        </mxCell>
        <mxCell id="7X5tYbJd714W5t0z2Zds-11" value="B bytes peer block" style="text;html=1;resizable=0;autosize=1;align=center;verticalAlign=middle;points=[];fillColor=none;strokeColor=none;rounded=0;comic=1;fontSize=16;fontStyle=2" vertex="1" parent="1">
          <mxGeometry x="240" y="480" width="150" height="20" as="geometry" />
        </mxCell>
        <mxCell id="7X5tYbJd714W5t0z2Zds-62" value="" style="curved=1;endArrow=classic;html=1;rounded=0;comic=1;fontSize=17;fontColor=#00FFFF;exitX=0;exitY=0.5;exitDx=0;exitDy=0;" edge="1" parent="1" source="7X5tYbJd714W5t0z2Zds-54">
          <mxGeometry width="50" height="50" relative="1" as="geometry">
            <mxPoint x="30" y="350" as="sourcePoint" />
            <mxPoint x="60" y="410" as="targetPoint" />
            <Array as="points">
              <mxPoint x="120" y="300" />
              <mxPoint x="70" y="320" />
              <mxPoint x="40" y="340" />
              <mxPoint x="10" y="380" />
            </Array>
          </mxGeometry>
        </mxCell>
        <mxCell id="7X5tYbJd714W5t0z2Zds-43" value="" style="shape=table;startSize=0;container=1;collapsible=0;childLayout=tableLayout;comic=1;fontSize=17;" vertex="1" parent="1">
          <mxGeometry x="120" y="280" width="80" height="30" as="geometry" />
        </mxCell>
        <mxCell id="7X5tYbJd714W5t0z2Zds-44" value="" style="shape=tableRow;horizontal=0;startSize=0;swimlaneHead=0;swimlaneBody=0;top=0;left=0;bottom=0;right=0;collapsible=0;dropTarget=0;fillColor=none;points=[[0,0.5],[1,0.5]];portConstraint=eastwest;comic=1;fontSize=17;" vertex="1" parent="7X5tYbJd714W5t0z2Zds-43">
          <mxGeometry width="80" height="3" as="geometry" />
        </mxCell>
        <mxCell id="7X5tYbJd714W5t0z2Zds-45" value="" style="shape=partialRectangle;html=1;whiteSpace=wrap;connectable=0;overflow=hidden;fillColor=none;top=0;left=0;bottom=0;right=0;pointerEvents=1;comic=1;fontSize=17;" vertex="1" parent="7X5tYbJd714W5t0z2Zds-44">
          <mxGeometry width="80" height="3" as="geometry">
            <mxRectangle width="80" height="3" as="alternateBounds" />
          </mxGeometry>
        </mxCell>
        <mxCell id="7X5tYbJd714W5t0z2Zds-46" value="" style="shape=tableRow;horizontal=0;startSize=0;swimlaneHead=0;swimlaneBody=0;top=0;left=0;bottom=0;right=0;collapsible=0;dropTarget=0;fillColor=none;points=[[0,0.5],[1,0.5]];portConstraint=eastwest;comic=1;fontSize=17;" vertex="1" parent="7X5tYbJd714W5t0z2Zds-43">
          <mxGeometry y="3" width="80" height="4" as="geometry" />
        </mxCell>
        <mxCell id="7X5tYbJd714W5t0z2Zds-47" value="" style="shape=partialRectangle;html=1;whiteSpace=wrap;connectable=0;overflow=hidden;fillColor=none;top=0;left=0;bottom=0;right=0;pointerEvents=1;comic=1;fontSize=17;" vertex="1" parent="7X5tYbJd714W5t0z2Zds-46">
          <mxGeometry width="80" height="4" as="geometry">
            <mxRectangle width="80" height="4" as="alternateBounds" />
          </mxGeometry>
        </mxCell>
        <mxCell id="7X5tYbJd714W5t0z2Zds-48" value="" style="shape=tableRow;horizontal=0;startSize=0;swimlaneHead=0;swimlaneBody=0;top=0;left=0;bottom=0;right=0;collapsible=0;dropTarget=0;fillColor=none;points=[[0,0.5],[1,0.5]];portConstraint=eastwest;comic=1;fontSize=17;" vertex="1" parent="7X5tYbJd714W5t0z2Zds-43">
          <mxGeometry y="7" width="80" height="3" as="geometry" />
        </mxCell>
        <mxCell id="7X5tYbJd714W5t0z2Zds-49" value="" style="shape=partialRectangle;html=1;whiteSpace=wrap;connectable=0;overflow=hidden;fillColor=none;top=0;left=0;bottom=0;right=0;pointerEvents=1;comic=1;fontSize=17;" vertex="1" parent="7X5tYbJd714W5t0z2Zds-48">
          <mxGeometry width="80" height="3" as="geometry">
            <mxRectangle width="80" height="3" as="alternateBounds" />
          </mxGeometry>
        </mxCell>
        <mxCell id="7X5tYbJd714W5t0z2Zds-50" value="" style="shape=tableRow;horizontal=0;startSize=0;swimlaneHead=0;swimlaneBody=0;top=0;left=0;bottom=0;right=0;collapsible=0;dropTarget=0;fillColor=none;points=[[0,0.5],[1,0.5]];portConstraint=eastwest;comic=1;fontSize=17;" vertex="1" parent="7X5tYbJd714W5t0z2Zds-43">
          <mxGeometry y="10" width="80" height="4" as="geometry" />
        </mxCell>
        <mxCell id="7X5tYbJd714W5t0z2Zds-51" value="" style="shape=partialRectangle;html=1;whiteSpace=wrap;connectable=0;overflow=hidden;fillColor=none;top=0;left=0;bottom=0;right=0;pointerEvents=1;comic=1;fontSize=17;" vertex="1" parent="7X5tYbJd714W5t0z2Zds-50">
          <mxGeometry width="80" height="4" as="geometry">
            <mxRectangle width="80" height="4" as="alternateBounds" />
          </mxGeometry>
        </mxCell>
        <mxCell id="7X5tYbJd714W5t0z2Zds-52" value="" style="shape=tableRow;horizontal=0;startSize=0;swimlaneHead=0;swimlaneBody=0;top=0;left=0;bottom=0;right=0;collapsible=0;dropTarget=0;fillColor=none;points=[[0,0.5],[1,0.5]];portConstraint=eastwest;comic=1;fontSize=17;" vertex="1" parent="7X5tYbJd714W5t0z2Zds-43">
          <mxGeometry y="14" width="80" height="3" as="geometry" />
        </mxCell>
        <mxCell id="7X5tYbJd714W5t0z2Zds-53" value="" style="shape=partialRectangle;html=1;whiteSpace=wrap;connectable=0;overflow=hidden;fillColor=none;top=0;left=0;bottom=0;right=0;pointerEvents=1;comic=1;fontSize=17;" vertex="1" parent="7X5tYbJd714W5t0z2Zds-52">
          <mxGeometry width="80" height="3" as="geometry">
            <mxRectangle width="80" height="3" as="alternateBounds" />
          </mxGeometry>
        </mxCell>
        <mxCell id="7X5tYbJd714W5t0z2Zds-54" value="" style="shape=tableRow;horizontal=0;startSize=0;swimlaneHead=0;swimlaneBody=0;top=0;left=0;bottom=0;right=0;collapsible=0;dropTarget=0;fillColor=none;points=[[0,0.5],[1,0.5]];portConstraint=eastwest;comic=1;fontSize=17;" vertex="1" parent="7X5tYbJd714W5t0z2Zds-43">
          <mxGeometry y="17" width="80" height="3" as="geometry" />
        </mxCell>
        <mxCell id="7X5tYbJd714W5t0z2Zds-55" value="" style="shape=partialRectangle;html=1;whiteSpace=wrap;connectable=0;overflow=hidden;fillColor=#33FFFF;top=0;left=0;bottom=0;right=0;pointerEvents=1;comic=1;fontSize=17;labelBackgroundColor=#00FFFF;strokeColor=#006EAF;fontColor=#ffffff;" vertex="1" parent="7X5tYbJd714W5t0z2Zds-54">
          <mxGeometry width="80" height="3" as="geometry">
            <mxRectangle width="80" height="3" as="alternateBounds" />
          </mxGeometry>
        </mxCell>
        <mxCell id="7X5tYbJd714W5t0z2Zds-56" value="" style="shape=tableRow;horizontal=0;startSize=0;swimlaneHead=0;swimlaneBody=0;top=0;left=0;bottom=0;right=0;collapsible=0;dropTarget=0;fillColor=none;points=[[0,0.5],[1,0.5]];portConstraint=eastwest;comic=1;fontSize=17;labelBackgroundColor=#33FFFF;" vertex="1" parent="7X5tYbJd714W5t0z2Zds-43">
          <mxGeometry y="20" width="80" height="3" as="geometry" />
        </mxCell>
        <mxCell id="7X5tYbJd714W5t0z2Zds-57" value="" style="shape=partialRectangle;html=1;whiteSpace=wrap;connectable=0;overflow=hidden;fillColor=none;top=0;left=0;bottom=0;right=0;pointerEvents=1;comic=1;fontSize=17;fontColor=#00FFFF;" vertex="1" parent="7X5tYbJd714W5t0z2Zds-56">
          <mxGeometry width="80" height="3" as="geometry">
            <mxRectangle width="80" height="3" as="alternateBounds" />
          </mxGeometry>
        </mxCell>
        <mxCell id="7X5tYbJd714W5t0z2Zds-58" value="" style="shape=tableRow;horizontal=0;startSize=0;swimlaneHead=0;swimlaneBody=0;top=0;left=0;bottom=0;right=0;collapsible=0;dropTarget=0;fillColor=none;points=[[0,0.5],[1,0.5]];portConstraint=eastwest;comic=1;fontSize=17;" vertex="1" parent="7X5tYbJd714W5t0z2Zds-43">
          <mxGeometry y="23" width="80" height="4" as="geometry" />
        </mxCell>
        <mxCell id="7X5tYbJd714W5t0z2Zds-59" value="" style="shape=partialRectangle;html=1;whiteSpace=wrap;connectable=0;overflow=hidden;fillColor=none;top=0;left=0;bottom=0;right=0;pointerEvents=1;comic=1;fontSize=17;" vertex="1" parent="7X5tYbJd714W5t0z2Zds-58">
          <mxGeometry width="80" height="4" as="geometry">
            <mxRectangle width="80" height="4" as="alternateBounds" />
          </mxGeometry>
        </mxCell>
        <mxCell id="7X5tYbJd714W5t0z2Zds-60" value="" style="shape=tableRow;horizontal=0;startSize=0;swimlaneHead=0;swimlaneBody=0;top=0;left=0;bottom=0;right=0;collapsible=0;dropTarget=0;fillColor=none;points=[[0,0.5],[1,0.5]];portConstraint=eastwest;comic=1;fontSize=17;" vertex="1" parent="7X5tYbJd714W5t0z2Zds-43">
          <mxGeometry y="27" width="80" height="3" as="geometry" />
        </mxCell>
        <mxCell id="7X5tYbJd714W5t0z2Zds-61" value="" style="shape=partialRectangle;html=1;whiteSpace=wrap;connectable=0;overflow=hidden;fillColor=none;top=0;left=0;bottom=0;right=0;pointerEvents=1;comic=1;fontSize=17;" vertex="1" parent="7X5tYbJd714W5t0z2Zds-60">
          <mxGeometry width="80" height="3" as="geometry">
            <mxRectangle width="80" height="3" as="alternateBounds" />
          </mxGeometry>
        </mxCell>
      </root>
    </mxGraphModel>
  </diagram>
</mxfile>
